HIERARCHY
ROOT hip
{
  OFFSET 0 0 0
  CHANNELS 6 Xposition Yposition Zposition Zrotation Yrotation Xrotation
  JOINT abdomen
  {
    OFFSET 0 20.6881 -0.73152
    CHANNELS 3 Zrotation Xrotation Yrotation
    JOINT chest
    {
      OFFSET 0 11.7043 -0.48768
      CHANNELS 3 Zrotation Xrotation Yrotation
      JOINT neck
      {
        OFFSET 0 22.1894 -2.19456
        CHANNELS 3 Zrotation Xrotation Yrotation
        JOINT head
        {
          OFFSET -0.24384 7.07133 1.2192
          CHANNELS 3 Zrotation Xrotation Yrotation
          JOINT leftEye
          {
            OFFSET 4.14528 8.04674 8.04672
            CHANNELS 3 Zrotation Xrotation Yrotation
            End Site
            {
              OFFSET 1 0 0
            }
          }
          JOINT rightEye
          {
            OFFSET -3.6576 8.04674 8.04672
            CHANNELS 3 Zrotation Xrotation Yrotation
            End Site
            {
              OFFSET 1 0 0
            }
          }
        }
      }
      JOINT rCollar
      {
        OFFSET -2.68224 19.2634 -4.8768
        CHANNELS 3 Zrotation Xrotation Yrotation
        JOINT rShldr
        {
          OFFSET -8.77824 -1.95073 1.46304
          CHANNELS 3 Zrotation Xrotation Yrotation
          JOINT rForeArm
          {
            OFFSET -28.1742 -1.7115 0.48768
            CHANNELS 3 Zrotation Xrotation Yrotation
            JOINT rHand
            {
              OFFSET -22.5879 0.773209 7.07136
              CHANNELS 3 Zrotation Xrotation Yrotation
              JOINT rThumb1
              {
                OFFSET -1.2192 -0.487915 3.41376
                CHANNELS 3 Zrotation Xrotation Yrotation
                JOINT rThumb2
                {
                  OFFSET -3.37035 -0.52449 3.41376
                  CHANNELS 3 Zrotation Xrotation Yrotation
                  End Site
                  {
                    OFFSET -1.78271 -1.18214 1.43049
                  }
                }
              }
              JOINT rIndex1
              {
                OFFSET -7.75947 0.938293 5.60832
                CHANNELS 3 Zrotation Xrotation Yrotation
                JOINT rIndex2
                {
                  OFFSET -2.54057 -0.884171 1.56538
                  CHANNELS 3 Zrotation Xrotation Yrotation
                  End Site
                  {
                    OFFSET -1.62519 -0.234802 1.16502
                  }
                }
              }
              JOINT rMid1
              {
                OFFSET -8.24714 1.18213 3.41376
                CHANNELS 3 Zrotation Xrotation Yrotation
                JOINT rMid2
                {
                  OFFSET -3.10165 -0.590103 1.0647
                  CHANNELS 3 Zrotation Xrotation Yrotation
                  End Site
                  {
                    OFFSET -2.48547 -0.328903 0.83742
                  }
                }
              }
              JOINT rRing1
              {
                OFFSET -8.82822 0.546677 1.51678
                CHANNELS 3 Zrotation Xrotation Yrotation
                JOINT rRing2
                {
                  OFFSET -2.60934 -0.819778 -0.0198488
                  CHANNELS 3 Zrotation Xrotation Yrotation
                  End Site
                  {
                    OFFSET -2.33842 -0.294052 0.168128
                  }
                }
              }
              JOINT rPinky1
              {
                OFFSET -8.27202 -0.0477905 -0.4584
                CHANNELS 3 Zrotation Xrotation Yrotation
                JOINT rPinky2
                {
                  OFFSET -1.82734 -0.647385 -0.700984
                  CHANNELS 3 Zrotation Xrotation Yrotation
                  End Site
                  {
                    OFFSET -1.69225 -0.51767 -0.607171
                  }
                }
              }
            }
          }
        }
      }
      JOINT lCollar
      {
        OFFSET 2.68224 19.2634 -4.8768
        CHANNELS 3 Zrotation Xrotation Yrotation
        JOINT lShldr
        {
          OFFSET 8.77824 -1.95073 1.46304
          CHANNELS 3 Zrotation Xrotation Yrotation
          JOINT lForeArm
          {
            OFFSET 28.1742 -1.7115 0.48768
            CHANNELS 3 Zrotation Xrotation Yrotation
            JOINT lHand
            {
              OFFSET 22.5879 0.773209 7.07136
              CHANNELS 3 Zrotation Xrotation Yrotation
              JOINT lThumb1
              {
                OFFSET 1.2192 -0.487915 3.41376
                CHANNELS 3 Zrotation Xrotation Yrotation
                JOINT lThumb2
                {
                  OFFSET 3.37035 -0.52449 3.41376
                  CHANNELS 3 Zrotation Xrotation Yrotation
                  End Site
                  {
                    OFFSET 1.78271 -1.18214 1.43049
                  }
                }
              }
              JOINT lIndex1
              {
                OFFSET 7.75947 0.938293 5.60832
                CHANNELS 3 Zrotation Xrotation Yrotation
                JOINT lIndex2
                {
                  OFFSET 2.54057 -0.884171 1.56538
                  CHANNELS 3 Zrotation Xrotation Yrotation
                  End Site
                  {
                    OFFSET 1.62519 -0.234802 1.16502
                  }
                }
              }
              JOINT lMid1
              {
                OFFSET 8.24714 1.18213 3.41376
                CHANNELS 3 Zrotation Xrotation Yrotation
                JOINT lMid2
                {
                  OFFSET 3.10165 -0.590103 1.0647
                  CHANNELS 3 Zrotation Xrotation Yrotation
                  End Site
                  {
                    OFFSET 2.48547 -0.328903 0.83742
                  }
                }
              }
              JOINT lRing1
              {
                OFFSET 8.82822 0.546677 1.51678
                CHANNELS 3 Zrotation Xrotation Yrotation
                JOINT lRing2
                {
                  OFFSET 2.60934 -0.819778 -0.0198488
                  CHANNELS 3 Zrotation Xrotation Yrotation
                  End Site
                  {
                    OFFSET 2.33842 -0.294052 0.168128
                  }
                }
              }
              JOINT lPinky1
              {
                OFFSET 8.27202 -0.0477905 -0.4584
                CHANNELS 3 Zrotation Xrotation Yrotation
                JOINT lPinky2
                {
                  OFFSET 1.82734 -0.647385 -0.700984
                  CHANNELS 3 Zrotation Xrotation Yrotation
                  End Site
                  {
                    OFFSET 1.69225 -0.51767 -0.607171
                  }
                }
              }
            }
          }
        }
      }
    }
  }
  JOINT rButtock
  {
    OFFSET -8.77824 4.35084 1.2192
    CHANNELS 3 Zrotation Xrotation Yrotation
    JOINT rThigh
    {
      OFFSET 0 -1.70687 -2.19456
      CHANNELS 3 Zrotation Xrotation Yrotation
      JOINT rShin
      {
        OFFSET 0 -36.8199 0.73152
        CHANNELS 3 Zrotation Xrotation Yrotation
        JOINT rFoot
        {
          OFFSET 0.73152 -45.1104 -5.12064
          CHANNELS 3 Zrotation Xrotation Yrotation
          End Site
          {
            OFFSET -1.1221 -3.69964 12.103
          }
        }
      }
    }
  }
  JOINT lButtock
  {
    OFFSET 8.77824 4.35084 1.2192
    CHANNELS 3 Zrotation Xrotation Yrotation
    JOINT lThigh
    {
      OFFSET 0 -1.70687 -2.19456
      CHANNELS 3 Zrotation Xrotation Yrotation
      JOINT lShin
      {
        OFFSET 0 -36.8199 0.73152
        CHANNELS 3 Zrotation Xrotation Yrotation
        JOINT lFoot
        {
          OFFSET -0.73152 -45.1104 -5.12064
          CHANNELS 3 Zrotation Xrotation Yrotation
          End Site
          {
            OFFSET 1.1221 -3.69964 12.103
          }
        }
      }
    }
  }
}
MOTION
Frames:	5
Frame Time:	0.00833333
13.386545 57.956936 9.923591 -8.082195 -18.627241 7.048961 3.7336006 8.893095 6.5062847 -0.06051328 -6.1994696 1.7188705 -1.1783783 13.516139 3.1718028 3.8517735 -23.36979 6.963163 0.07336968 0.009164277 -0.0010951291 0.009007804 -0.055142168 0.019685596 -0.0059803557 0.095013246 0.036714334 77.03555 50.350185 -24.355686 -27.611105 -43.439003 90.28583 -0.09404577 -5.844715 -0.87349683 -0.018330252 0.032972176 0.057255734 -0.006183124 -0.05401312 -0.037064675 0.0036117998 0.06209078 0.02120697 7.627422 5.483142 0.44437283 0.008713221 0.021912664 -0.057796296 2.841623 1.0165881 0.12552874 0.007546851 -0.051322404 -0.025750324 10.319905 0.7266356 -0.0057205167 0.00023246545 0.018522358 -0.005412487 2.1901882 -0.75732094 -0.21107025 0.06926097 0.013384398 -0.040783357 -53.74667 38.28656 -34.376366 28.354652 -40.137802 -84.288635 1.5171096 -28.710196 4.3022184 -0.0993986 0.059984025 0.058692053 -0.074222475 0.026837157 0.016697492 0.005035545 0.07151445 -0.019135885 -7.7110987 5.4726253 -0.36790425 -0.08533569 0.04091937 0.032554697 -2.9037123 0.9771279 -0.10728259 -0.014093488 -0.04462575 0.0021478098 -10.24943 0.816393 -0.025872502 -0.008168093 0.022553042 -0.012765535 -2.2284698 -0.74370486 0.23898932 -0.014185756 -0.06527865 0.04823882 -4.243712 -1.9222041 -4.670797 -0.2474041 49.155197 2.0365021 -14.361724 -21.01645 -34.582085 0.0766581 -0.046821002 0.013084716 51.70488 -55.961082 47.731827 1.3077134 60.16506 -0.7249819 0.014582546 4.1301985 -6.448977
13.30708 57.832184 10.493137 -8.410902 -18.10106 7.1599994 3.9865816 8.348621 6.7680216 0.054913267 -6.131845 1.792407 -1.1716315 13.394614 3.0829573 4.0228834 -23.222706 6.8308983 0.055280384 -0.0069332193 -0.005337174 0.017128782 -0.061340325 0.013163166 -0.014276911 0.06900271 0.050483365 77.650986 50.4062 -24.559893 -27.537216 -43.376366 90.02299 -0.1222626 -5.8562365 -0.8679262 -0.010004825 0.023634743 0.06028307 -0.0021892935 -0.04549303 -0.03417405 0.009994631 0.036873057 0.020139392 7.6201544 5.49345 0.44380403 0.0090686595 0.028265199 -0.046474878 2.8472352 1.008305 0.11609198 0.019879838 -0.03782046 -0.019289386 10.325436 0.73178554 0.003569812 0.010637427 0.021288926 0.0028541961 2.1859477 -0.75838745 -0.23302975 0.07418554 0.023463095 -0.043197725 -53.155018 38.356766 -34.601795 28.224451 -39.921074 -83.82494 1.5223676 -28.120756 4.237217 -0.07649558 0.053962484 0.060878955 -0.06610912 0.015734607 0.019960655 -0.0037960578 0.066695124 -0.027596762 -7.707463 5.4769754 -0.38537914 -0.08093165 0.030626003 0.027875453 -2.9061542 0.9919296 -0.1010564 -0.026117235 -0.04156446 0.010006129 -10.255139 0.8165958 -0.021215316 0.004251189 0.019967804 -0.021944592 -2.233551 -0.7582512 0.2440022 -0.023035457 -0.047588333 0.035176065 -3.8162897 -0.7127293 -4.8733764 -0.12939948 48.050243 2.1916552 -14.829468 -21.629175 -35.12533 0.06931423 -0.036618084 0.011807721 52.34733 -56.18527 48.25024 1.4304174 60.775745 -0.7385553 0.05009625 3.3942883 -6.7154965
13.246573 57.567978 11.01539 -8.829502 -17.467155 7.3267293 4.314604 7.8256855 6.949398 0.066391475 -6.1099195 1.8660408 -1.1489908 13.275835 2.9622178 4.122276 -23.030342 6.6272683 0.059010763 -0.019468216 -0.0070267357 0.012143676 -0.06338245 0.014835869 -0.022734016 0.06800788 0.049260847 78.150475 50.192417 -24.42736 -27.456217 -43.134613 89.549385 -0.13545954 -5.8039184 -0.897656 0.0039787716 0.025072811 0.06561701 -0.00725522 -0.05253257 -0.026062913 0.02069713 0.020890864 0.024629563 7.612674 5.5005603 0.43243417 -0.0076922686 0.031453002 -0.03184529 2.8569639 0.9971933 0.09785726 0.030649386 -0.01985591 -0.017720327 10.33518 0.7314646 0.012112344 0.020286918 0.011312116 0.0016535972 2.1870713 -0.7552922 -0.23999156 0.072474696 0.026092073 -0.052501526 -52.76502 38.271786 -34.903744 28.056805 -39.761074 -83.39374 1.4279244 -28.108765 4.2490726 -0.06740736 0.057164233 0.06663895 -0.059626225 0.023372706 0.026004592 0.0014787697 0.06592175 -0.030631343 -7.7078342 5.482666 -0.40457687 -0.093646795 0.017534465 0.035814393 -2.9111073 1.0017948 -0.0983701 -0.022264652 -0.040745858 0.0075123226 -10.26059 0.82250184 -0.021016931 0.01909035 0.014608506 -0.028979328 -2.2400491 -0.76313555 0.24818385 -0.03339384 -0.03455556 0.034158185 -3.3084877 -0.13714208 -5.0814824 -0.057646133 47.176395 2.2576938 -15.498823 -22.149635 -35.809204 0.06365476 -0.03109607 0.012835792 53.18965 -56.735325 48.978577 1.443982 61.607243 -0.78854835 0.035583403 2.5396106 -6.945597
13.185355 57.052162 11.413584 -9.253263 -17.019045 7.564329 4.8611565 7.348958 7.1152225 0.0071622008 -6.137167 1.9190196 -1.1358273 13.129808 2.8386059 4.2201657 -22.847595 6.399065 0.06943388 -0.026790192 -0.0022576794 0.0071028215 -0.0625782 0.021902788 -0.034177963 0.0809526 0.04921375 78.60098 50.099003 -24.233221 -27.482544 -42.866005 89.1829 -0.121003404 -5.747679 -0.88400704 0.0075663296 0.028602466 0.06763534 -0.017073473 -0.06023899 -0.019343948 0.033184975 0.01732095 0.032225598 7.6120596 5.506218 0.4170733 -0.030497577 0.03211659 -0.017414058 2.872611 0.9892321 0.08039801 0.03715222 -0.011992451 -0.023147713 10.340459 0.7328384 0.021712517 0.027486863 -0.00012108557 -0.0006883007 2.190696 -0.75695884 -0.24264047 0.073158875 0.026468728 -0.062684335 -52.592197 38.09821 -35.06769 28.044237 -39.61424 -83.11281 1.3387961 -28.37238 4.3726673 -0.07026214 0.06624355 0.068550885 -0.058914013 0.035421703 0.027433008 0.013381716 0.0650667 -0.033196576 -7.705913 5.4794345 -0.41877124 -0.11185655 0.0071729734 0.046783064 -2.9211059 1.010787 -0.10102028 -0.009947796 -0.038306866 0.00045516432 -10.265067 0.8308894 -0.022971869 0.031999987 0.009411608 -0.029055038 -2.2491 -0.76388043 0.24939743 -0.042793352 -0.03062483 0.03531987 -2.8569288 0.3001331 -5.332696 -0.052433707 46.49158 2.3393981 -16.102148 -22.499367 -36.43578 0.06238106 -0.025557429 0.014946106 54.26572 -57.202877 49.78676 1.4143951 62.483025 -0.93283653 0.04082683 1.6636288 -7.112563
13.126628 56.347027 11.673906 -9.661175 -16.782724 7.876151 5.32526 6.9686747 7.3800693 -0.05374929 -6.1475453 1.9868251 -1.101311 12.978274 2.7025797 4.300509 -22.821507 6.14151 0.079388976 -0.02973015 0.004408128 0.00598694 -0.061395023 0.029210037 -0.045749854 0.09985648 0.05605914 78.86719 50.07687 -23.988407 -27.590914 -42.59576 88.87493 -0.021310542 -5.6381083 -0.7515204 -5.454762e-05 0.032589804 0.06487249 -0.02612967 -0.0645649 -0.015881069 0.045495186 0.023568349 0.040841788 7.61374 5.5082326 0.40488887 -0.05451337 0.03405718 -0.0027248038 2.8918183 0.98517764 0.06541242 0.042031676 -0.015726635 -0.031180477 10.337732 0.7366597 0.031680614 0.03448051 -0.008037644 0.0016649677 2.196426 -0.76159257 -0.24447529 0.07688433 0.031148385 -0.069992155 -52.53632 37.93551 -35.048576 28.157627 -39.52775 -83.03409 1.2888201 -28.447598 4.452062 -0.07783389 0.07632347 0.070204765 -0.06336071 0.047746345 0.02474083 0.026074465 0.06389239 -0.036691733 -7.699202 5.4652925 -0.42448625 -0.13005765 -0.0037544086 0.053869337 -2.9312477 1.0187727 -0.10437752 0.005383013 -0.034877293 -0.008324718 -10.267538 0.8407561 -0.02773171 0.040295694 0.008369903 -0.025798695 -2.2591136 -0.7611919 0.24701527 -0.05185818 -0.032139786 0.033146158 -2.495188 0.67563635 -5.569378 -0.08218382 46.051857 2.4766755 -16.547056 -22.687542 -36.82303 0.06653075 -0.01955791 0.020160194 55.45386 -57.707523 50.856834 1.463924 63.23696 -1.0496953 0.09136969 1.0101846 -7.149806
